HIERARCHY
ROOT hip
{
  OFFSET 111.957 85.5748 68.7708
  CHANNELS 6 Xposition Yposition Zposition Zrotation Xrotation Yrotation
  JOINT abdomen
  {
    OFFSET 0 20.6881 -0.73152
    CHANNELS 3 Zrotation Xrotation Yrotation
    JOINT chest
    {
      OFFSET 0 11.7043 -0.48768
      CHANNELS 3 Zrotation Xrotation Yrotation
      JOINT neck
      {
        OFFSET 0 22.1894 -2.19456
        CHANNELS 3 Zrotation Xrotation Yrotation
        JOINT head
        {
          OFFSET -0.24384 7.07133 1.2192
          CHANNELS 3 Zrotation Xrotation Yrotation
          JOINT leftEye
          {
            OFFSET 4.14528 8.04674 8.04672
            CHANNELS 3 Zrotation Xrotation Yrotation
            End Site
            {
              OFFSET 1 0 0
            }
          }
          JOINT rightEye
          {
            OFFSET -3.6576 8.04674 8.04672
            CHANNELS 3 Zrotation Xrotation Yrotation
            End Site
            {
              OFFSET 1 0 0
            }
          }
        }
      }
      JOINT rCollar
      {
        OFFSET -2.68224 19.2634 -4.8768
        CHANNELS 3 Zrotation Xrotation Yrotation
        JOINT rShldr
        {
          OFFSET -8.77824 -1.95073 1.46304
          CHANNELS 3 Zrotation Xrotation Yrotation
          JOINT rForeArm
          {
            OFFSET -28.1742 -1.7115 0.48768
            CHANNELS 3 Zrotation Xrotation Yrotation
            JOINT rHand
            {
              OFFSET -22.5879 0.773209 7.07136
              CHANNELS 3 Zrotation Xrotation Yrotation
              JOINT rThumb1
              {
                OFFSET -1.2192 -0.487915 3.41376
                CHANNELS 3 Zrotation Xrotation Yrotation
                JOINT rThumb2
                {
                  OFFSET -3.37035 -0.52449 3.41376
                  CHANNELS 3 Zrotation Xrotation Yrotation
                  End Site
                  {
                    OFFSET -1.78271 -1.18214 1.43049
                  }
                }
              }
              JOINT rIndex1
              {
                OFFSET -7.75947 0.938293 5.60832
                CHANNELS 3 Zrotation Xrotation Yrotation
                JOINT rIndex2
                {
                  OFFSET -2.54057 -0.884171 1.56538
                  CHANNELS 3 Zrotation Xrotation Yrotation
                  End Site
                  {
                    OFFSET -1.62519 -0.234802 1.16502
                  }
                }
              }
              JOINT rMid1
              {
                OFFSET -8.24714 1.18213 3.41376
                CHANNELS 3 Zrotation Xrotation Yrotation
                JOINT rMid2
                {
                  OFFSET -3.10165 -0.590103 1.0647
                  CHANNELS 3 Zrotation Xrotation Yrotation
                  End Site
                  {
                    OFFSET -2.48547 -0.328903 0.83742
                  }
                }
              }
              JOINT rRing1
              {
                OFFSET -8.82822 0.546677 1.51678
                CHANNELS 3 Zrotation Xrotation Yrotation
                JOINT rRing2
                {
                  OFFSET -2.60934 -0.819778 -0.0198488
                  CHANNELS 3 Zrotation Xrotation Yrotation
                  End Site
                  {
                    OFFSET -2.33842 -0.294052 0.168128
                  }
                }
              }
              JOINT rPinky1
              {
                OFFSET -8.27202 -0.0477905 -0.4584
                CHANNELS 3 Zrotation Xrotation Yrotation
                JOINT rPinky2
                {
                  OFFSET -1.82734 -0.647385 -0.700984
                  CHANNELS 3 Zrotation Xrotation Yrotation
                  End Site
                  {
                    OFFSET -1.69225 -0.51767 -0.607171
                  }
                }
              }
            }
          }
        }
      }
      JOINT lCollar
      {
        OFFSET 2.68224 19.2634 -4.8768
        CHANNELS 3 Zrotation Xrotation Yrotation
        JOINT lShldr
        {
          OFFSET 8.77824 -1.95073 1.46304
          CHANNELS 3 Zrotation Xrotation Yrotation
          JOINT lForeArm
          {
            OFFSET 28.1742 -1.7115 0.48768
            CHANNELS 3 Zrotation Xrotation Yrotation
            JOINT lHand
            {
              OFFSET 22.5879 0.773209 7.07136
              CHANNELS 3 Zrotation Xrotation Yrotation
              JOINT lThumb1
              {
                OFFSET 1.2192 -0.487915 3.41376
                CHANNELS 3 Zrotation Xrotation Yrotation
                JOINT lThumb2
                {
                  OFFSET 3.37035 -0.52449 3.41376
                  CHANNELS 3 Zrotation Xrotation Yrotation
                  End Site
                  {
                    OFFSET 1.78271 -1.18214 1.43049
                  }
                }
              }
              JOINT lIndex1
              {
                OFFSET 7.75947 0.938293 5.60832
                CHANNELS 3 Zrotation Xrotation Yrotation
                JOINT lIndex2
                {
                  OFFSET 2.54057 -0.884171 1.56538
                  CHANNELS 3 Zrotation Xrotation Yrotation
                  End Site
                  {
                    OFFSET 1.62519 -0.234802 1.16502
                  }
                }
              }
              JOINT lMid1
              {
                OFFSET 8.24714 1.18213 3.41376
                CHANNELS 3 Zrotation Xrotation Yrotation
                JOINT lMid2
                {
                  OFFSET 3.10165 -0.590103 1.0647
                  CHANNELS 3 Zrotation Xrotation Yrotation
                  End Site
                  {
                    OFFSET 2.48547 -0.328903 0.83742
                  }
                }
              }
              JOINT lRing1
              {
                OFFSET 8.82822 0.546677 1.51678
                CHANNELS 3 Zrotation Xrotation Yrotation
                JOINT lRing2
                {
                  OFFSET 2.60934 -0.819778 -0.0198488
                  CHANNELS 3 Zrotation Xrotation Yrotation
                  End Site
                  {
                    OFFSET 2.33842 -0.294052 0.168128
                  }
                }
              }
              JOINT lPinky1
              {
                OFFSET 8.27202 -0.0477905 -0.4584
                CHANNELS 3 Zrotation Xrotation Yrotation
                JOINT lPinky2
                {
                  OFFSET 1.82734 -0.647385 -0.700984
                  CHANNELS 3 Zrotation Xrotation Yrotation
                  End Site
                  {
                    OFFSET 1.69225 -0.51767 -0.607171
                  }
                }
              }
            }
          }
        }
      }
    }
  }
  JOINT rButtock
  {
    OFFSET -8.77824 4.35084 1.2192
    CHANNELS 3 Zrotation Xrotation Yrotation
    JOINT rThigh
    {
      OFFSET 0 -1.70687 -2.19456
      CHANNELS 3 Zrotation Xrotation Yrotation
      JOINT rShin
      {
        OFFSET 0 -36.8199 0.73152
        CHANNELS 3 Zrotation Xrotation Yrotation
        JOINT rFoot
        {
          OFFSET 0.73152 -45.1104 -5.12064
          CHANNELS 3 Zrotation Xrotation Yrotation
          End Site
          {
            OFFSET -1.1221 -3.69964 12.103
          }
        }
      }
    }
  }
  JOINT lButtock
  {
    OFFSET 8.77824 4.35084 1.2192
    CHANNELS 3 Zrotation Xrotation Yrotation
    JOINT lThigh
    {
      OFFSET 0 -1.70687 -2.19456
      CHANNELS 3 Zrotation Xrotation Yrotation
      JOINT lShin
      {
        OFFSET 0 -36.8199 0.73152
        CHANNELS 3 Zrotation Xrotation Yrotation
        JOINT lFoot
        {
          OFFSET -0.73152 -45.1104 -5.12064
          CHANNELS 3 Zrotation Xrotation Yrotation
          End Site
          {
            OFFSET 1.1221 -3.69964 12.103
          }
        }
      }
    }
  }
}
MOTION
Frames:	4
Frame Time:	0.00833333
-63.7192 84.8839 -60.6054 0.147522 -0.000239384 -0.00252446 -0.194077 -0.000752048 -0.00553942 -0.0535363 -0.00112971 -0.00927448 -2.85708e-015 -7.95139e-016 -2.79541e-017 -8.57259e-015 3.18055e-015 -7.29912e-017 -0 0 0 -0 0 0 -1.39288e-015 -2.32951e-018 1.98785e-016 -2.7464e-014 -3.04389e-016 3.97569e-016 -5.16144e-013 1.53859e-013 1.90833e-014 -5.91297e-012 -1.59525e-013 -8.5875e-014 -1.39481e-011 -8.79112e-015 -1.17681e-013 -2.40883e-011 -1.90833e-014 -2.08326e-013 -1.39424e-011 -7.15625e-015 -1.24042e-013 7.73091 5.47488 0.417314 -1.39477e-011 -8.24956e-015 -1.20861e-013 2.90554 0.965183 0.102902 -1.39408e-011 -8.24956e-015 -1.20066e-013 10.2786 0.731801 0.0259123 -1.39537e-011 -7.55382e-015 -1.08139e-013 2.22167 -0.733487 -0.20892 -1.48959e-015 -2.52363e-018 -1.98785e-016 -3.17884e-014 -1.18028e-016 -1.19271e-015 -5.15796e-013 -1.55847e-013 -1.90833e-014 -5.91511e-012 1.47026e-013 -3.18055e-014 -1.39487e-011 -1.86712e-014 -1.20861e-013 -2.40883e-011 -2.8625e-014 -2.00375e-013 -1.39519e-011 -1.55052e-014 -1.11319e-013 -7.73091 5.47488 -0.417314 -1.39493e-011 -1.799e-014 -1.20861e-013 -2.90554 0.965183 -0.102902 -1.39637e-011 -1.77912e-014 -1.21656e-013 -10.2786 0.731801 -0.0259123 -1.39432e-011 -1.86858e-014 -1.33583e-013 -2.22167 -0.733487 0.20892 -2.03217e-016 0 -3.88251e-019 0.355853 -2.82714 -0.0340695 -0.00665506 -0.431854 -0.0584473 -0.502544 3.25829 0.123799 2.03217e-016 0 3.88251e-019 -0.651362 -3.58303 0.0525571 0.00446002 0.937454 0.0381204 0.50497 2.64491 -0.111592 
-63.5358 84.0821 -71.3988 -0.335656 -0.561442 -46.0532 1.39327 4.13581 -1.39823 0.999194 -1.18083 -0.240782 -3.48155 6.18775 -7.16739 7.47278 3.5928 -13.2365 -0 0 0 -0 0 0 -1.15088e-014 6.91717e-014 1.03681e-013 21.333 6.98759 5.11281 -4.60283 -2.17366 7.09774 0.00524819 1.60769 0.225625 -5.44169e-010 1.83501e-009 -2.18573e-010 -9.42306e-010 3.17607e-009 -3.73968e-010 -5.44161e-010 1.83501e-009 -2.1858e-010 7.73091 5.47488 0.417314 -5.44169e-010 1.83501e-009 -2.18576e-010 2.90554 0.965183 0.102902 -5.44161e-010 1.83501e-009 -2.18575e-010 10.2786 0.731801 0.0259123 -5.44172e-010 1.83501e-009 -2.18565e-010 2.22167 -0.733487 -0.20892 -1.15871e-014 6.9179e-014 1.03305e-013 -22.0204 3.80652 2.18587 3.8512 -1.68244 -6.08637 -0.005839 1.69599 -0.237979 -2.72201e-010 2.56611e-011 1.07718e-009 -4.64436e-010 4.73258e-011 1.86504e-009 -2.72205e-010 2.56635e-011 1.07719e-009 -7.73091 5.47488 -0.417314 -2.72201e-010 2.56629e-011 1.07718e-009 -2.90554 0.965183 -0.102902 -2.72214e-010 2.56628e-011 1.07718e-009 -10.2786 0.731801 -0.0259123 -2.72195e-010 2.56623e-011 1.07717e-009 -2.22167 -0.733487 0.20892 -2.03217e-016 0 -3.88251e-019 0.669596 -1.39398 0.751779 0.00265474 6.45168 0.0577885 -0.396331 -0.759792 1.08897 2.03217e-016 0 3.88251e-019 0.680883 -9.18273 -0.623701 0.0163718 7.38207 -0.0303098 0.231827 1.09788 -3.88954 
-63.5338 84.0146 -70.5694 -1.30175 0.136106 -94.7303 3.29982 8.48682 -2.88692 2.09906 -2.42523 -0.48398 -5.45493 12.3992 -15.022 17.1185 6.7461 -27.3895 -0 0 0 -0 0 0 -2.25078e-014 1.46297e-013 2.16259e-013 42.5008 14.1787 10.7882 -8.88499 -4.35814 14.6292 -0.00300439 3.31233 0.465461 -1.108e-009 3.83283e-009 -4.50833e-010 -1.91875e-009 6.63395e-009 -7.71281e-010 -1.10799e-009 3.83283e-009 -4.50841e-010 7.73091 5.47488 0.417314 -1.108e-009 3.83283e-009 -4.50834e-010 2.90554 0.965183 0.102902 -1.10799e-009 3.83283e-009 -4.50834e-010 10.2786 0.731801 0.0259123 -1.108e-009 3.83283e-009 -4.50825e-010 2.22167 -0.733487 -0.20892 -2.25651e-014 1.46312e-013 2.15902e-013 -45.6091 7.8004 4.53841 7.54067 -3.40071 -12.5444 0.00334944 3.49509 -0.491136 -5.31008e-010 7.80868e-011 2.28392e-009 -9.0497e-010 1.41247e-010 3.95419e-009 -5.31011e-010 7.80883e-011 2.28393e-009 -7.73091 5.47488 -0.417314 -5.31006e-010 7.80898e-011 2.28392e-009 -2.90554 0.965183 -0.102902 -5.31018e-010 7.80894e-011 2.28392e-009 -10.2786 0.731801 -0.0259123 -5.31001e-010 7.80894e-011 2.28391e-009 -2.22167 -0.733487 0.20892 -2.03217e-016 0 -3.88251e-019 0.960311 0.148687 1.58083 -0.0188555 13.7045 0.1843 -0.134248 -4.99844 2.13152 2.03217e-016 0 3.88251e-019 1.9462 -15.1086 -1.37835 0.0460553 14.1016 -0.103314 -0.281451 -0.518483 -7.94021 
-63.5082 83.9847 -69.7915 -1.17424 1.80709 -138.12 5.18288 12.3792 -4.2722 3.07601 -3.54001 -0.704988 -5.73779 17.3786 -22.453 26.9992 8.50547 -40.1597 -0 0 0 -0 0 0 -3.17406e-014 2.0752e-013 3.10645e-013 60.1002 20.2739 16.2566 -12.2265 -6.12157 21.4058 -0.0223548 4.82276 0.679011 -1.60461e-009 5.50503e-009 -6.55485e-010 -2.77874e-009 9.52826e-009 -1.12149e-009 -1.6046e-009 5.50503e-009 -6.55493e-010 7.73091 5.47488 0.417314 -1.60461e-009 5.50503e-009 -6.55485e-010 2.90554 0.965183 0.102902 -1.6046e-009 5.50503e-009 -6.55484e-010 10.2786 0.731801 0.0259123 -1.60461e-009 5.50503e-009 -6.55477e-010 2.22167 -0.733487 -0.20892 -3.17822e-014 2.07542e-013 3.10312e-013 -66.945 11.3524 6.67428 10.4983 -4.81995 -18.3183 0.0248902 5.08762 -0.716448 -7.88707e-010 7.70207e-011 3.23179e-009 -1.34513e-009 1.42035e-010 5.59552e-009 -7.8871e-010 7.70214e-011 3.2318e-009 -7.73091 5.47488 -0.417314 -7.88703e-010 7.70247e-011 3.23178e-009 -2.90554 0.965183 -0.102902 -7.88714e-010 7.70239e-011 3.23179e-009 -10.2786 0.731801 -0.0259123 -7.887e-010 7.70244e-011 3.23179e-009 -2.22167 -0.733487 0.20892 -2.03217e-016 0 -3.88251e-019 1.17918 1.47077 2.32349 -0.066623 20.2185 0.308146 0.225703 -8.78407 3.05529 2.03217e-016 0 3.88251e-019 2.92541 -20.3714 -2.08232 0.0887257 20.2712 -0.177394 -0.92277 -1.94903 -11.4502 
